<svg xmlns="http://www.w3.org/2000/svg" width="1672" height="941" viewBox="0 0 1672 941" role="img" aria-labelledby="title desc">
  <title id="title">Why Is My Bank Balance Misleading</title>
  <desc id="desc">why is my bank balance misleading</desc>
  <rect width="1672" height="941" fill="#f3eee5"/>
  <rect x="70" y="70" width="1532" height="801" rx="0" fill="#fffaf0" stroke="#24352b" stroke-width="4"/>
  <rect x="1040" y="146" width="338" height="608" rx="46" fill="#24352b"/>
  <rect x="1074" y="196" width="270" height="508" rx="28" fill="#f8f3ea"/>
  <rect x="1116" y="272" width="186" height="34" rx="17" fill="#b65f2a"/>
  <rect x="1116" y="340" width="126" height="32" rx="16" fill="#6d7664"/>
  <rect x="1116" y="438" width="196" height="118" rx="28" fill="#e2caa4"/>
  <text x="1214" y="505" text-anchor="middle" font-family="Arial, sans-serif" font-size="46" font-weight="800" fill="#24352b">$</text>
  <path d="M994 704 C908 650 865 572 874 470 C883 362 961 288 1038 262" fill="none" stroke="#b65f2a" stroke-width="16" stroke-linecap="round"/>
  <rect x="112" y="128" width="154" height="32" fill="#b65f2a"/>
  <text font-family="Arial, sans-serif" font-size="72" font-weight="900" fill="#24352b"><tspan x="112" y="254">Why Is My Bank Balance</tspan><tspan x="112" y="340">Misleading</tspan></text>
  <text x="112" y="492" font-family="Arial, sans-serif" font-size="28" font-weight="800" letter-spacing="3" fill="#b65f2a">PIP GUIDE</text>
  <text font-family="Arial, sans-serif" font-size="34" font-weight="700" fill="#6d7664"><tspan x="112" y="570">why is my bank balance misleading</tspan></text>
  <text x="112" y="760" font-family="Arial, sans-serif" font-size="28" font-weight="700" fill="#24352b">Spendable Cash Today, explained without spreadsheet homework.</text>
</svg>
